<svg xmlns="http://www.w3.org/2000/svg" width="36" height="31.5" viewBox="0 0 36 31.5">
    <path fill="#fbb200" d="M32.625 18H27v-4.5A4.5 4.5 0 0 1 31.5 9h.563a1.683 1.683 0 0 0 1.687-1.687V3.938a1.683 1.683 0 0 0-1.687-1.688H31.5A11.247 11.247 0 0 0 20.25 13.5v16.875a3.376 3.376 0 0 0 3.375 3.375h9A3.376 3.376 0 0 0 36 30.375v-9A3.376 3.376 0 0 0 32.625 18zm-20.25 0H6.75v-4.5a4.5 4.5 0 0 1 4.5-4.5h.563A1.683 1.683 0 0 0 13.5 7.313V3.938a1.683 1.683 0 0 0-1.687-1.688h-.563A11.247 11.247 0 0 0 0 13.5v16.875a3.376 3.376 0 0 0 3.375 3.375h9a3.376 3.376 0 0 0 3.375-3.375v-9A3.376 3.376 0 0 0 12.375 18z" transform="translate(0 -2.25)"/>
</svg>
